<mxfile host="app.diagrams.net" agent="Mozilla/5.0 (Windows NT 10.0; Win64; x64; rv:129.0) Gecko/20100101 Firefox/129.0" version="24.7.6">
  <diagram name="Page-1" id="2YBvvXClWsGukQMizWep">
    <mxGraphModel dx="1434" dy="1381" grid="1" gridSize="10" guides="1" tooltips="1" connect="1" arrows="1" fold="1" page="1" pageScale="1" pageWidth="850" pageHeight="1100" math="0" shadow="0">
      <root>
        <mxCell id="0" />
        <mxCell id="1" parent="0" />
        <mxCell id="aM9ryv3xv72pqoxQDRHE-1" value="Partner" style="shape=umlLifeline;perimeter=lifelinePerimeter;whiteSpace=wrap;html=1;container=0;dropTarget=0;collapsible=0;recursiveResize=0;outlineConnect=0;portConstraint=eastwest;newEdgeStyle={&quot;edgeStyle&quot;:&quot;elbowEdgeStyle&quot;,&quot;elbow&quot;:&quot;vertical&quot;,&quot;curved&quot;:0,&quot;rounded&quot;:0};fillColor=#f5f5f5;fontColor=#333333;strokeColor=#666666;" parent="1" vertex="1">
          <mxGeometry x="230" y="60" width="100" height="730" as="geometry" />
        </mxCell>
        <mxCell id="aZnRzv1SFX0IplNiYT6L-55" value="" style="html=1;points=[];perimeter=orthogonalPerimeter;outlineConnect=0;targetShapes=umlLifeline;portConstraint=eastwest;newEdgeStyle={&quot;edgeStyle&quot;:&quot;elbowEdgeStyle&quot;,&quot;elbow&quot;:&quot;vertical&quot;,&quot;curved&quot;:0,&quot;rounded&quot;:0};" parent="aM9ryv3xv72pqoxQDRHE-1" vertex="1">
          <mxGeometry x="45" y="130" width="10" height="30" as="geometry" />
        </mxCell>
        <mxCell id="aM9ryv3xv72pqoxQDRHE-5" value="coin.bachkhoapay.com" style="shape=umlLifeline;perimeter=lifelinePerimeter;whiteSpace=wrap;html=1;container=0;dropTarget=0;collapsible=0;recursiveResize=0;outlineConnect=0;portConstraint=eastwest;newEdgeStyle={&quot;edgeStyle&quot;:&quot;elbowEdgeStyle&quot;,&quot;elbow&quot;:&quot;vertical&quot;,&quot;curved&quot;:0,&quot;rounded&quot;:0};fillColor=#dae8fc;strokeColor=#6c8ebf;" parent="1" vertex="1">
          <mxGeometry x="380" y="60" width="130" height="730" as="geometry" />
        </mxCell>
        <mxCell id="aZnRzv1SFX0IplNiYT6L-56" value="" style="html=1;points=[];perimeter=orthogonalPerimeter;outlineConnect=0;targetShapes=umlLifeline;portConstraint=eastwest;newEdgeStyle={&quot;edgeStyle&quot;:&quot;elbowEdgeStyle&quot;,&quot;elbow&quot;:&quot;vertical&quot;,&quot;curved&quot;:0,&quot;rounded&quot;:0};" parent="aM9ryv3xv72pqoxQDRHE-5" vertex="1">
          <mxGeometry x="60" y="130" width="10" height="40" as="geometry" />
        </mxCell>
        <mxCell id="aZnRzv1SFX0IplNiYT6L-76" value="" style="html=1;points=[[0,0,0,0,5],[0,1,0,0,-5],[1,0,0,0,5],[1,1,0,0,-5]];perimeter=orthogonalPerimeter;outlineConnect=0;targetShapes=umlLifeline;portConstraint=eastwest;newEdgeStyle={&quot;curved&quot;:0,&quot;rounded&quot;:0};" parent="aM9ryv3xv72pqoxQDRHE-5" vertex="1">
          <mxGeometry x="60" y="250" width="10" height="60" as="geometry" />
        </mxCell>
        <mxCell id="6JJZ0WglIaExuxRRYJLk-1" value="User" style="shape=umlActor;verticalLabelPosition=bottom;verticalAlign=top;html=1;outlineConnect=0;" parent="1" vertex="1">
          <mxGeometry x="60" y="60" width="20" height="30" as="geometry" />
        </mxCell>
        <mxCell id="aZnRzv1SFX0IplNiYT6L-1" value="OnChain(BSC, TRON)" style="shape=umlLifeline;perimeter=lifelinePerimeter;whiteSpace=wrap;html=1;container=0;dropTarget=0;collapsible=0;recursiveResize=0;outlineConnect=0;portConstraint=eastwest;newEdgeStyle={&quot;edgeStyle&quot;:&quot;elbowEdgeStyle&quot;,&quot;elbow&quot;:&quot;vertical&quot;,&quot;curved&quot;:0,&quot;rounded&quot;:0};fillColor=#fff2cc;strokeColor=#d6b656;" parent="1" vertex="1">
          <mxGeometry x="570" y="60" width="100" height="740" as="geometry" />
        </mxCell>
        <mxCell id="aZnRzv1SFX0IplNiYT6L-2" style="edgeStyle=elbowEdgeStyle;rounded=0;orthogonalLoop=1;jettySize=auto;html=1;elbow=vertical;curved=0;" parent="aZnRzv1SFX0IplNiYT6L-1" target="aZnRzv1SFX0IplNiYT6L-1" edge="1">
          <mxGeometry relative="1" as="geometry">
            <mxPoint x="50" y="105" as="sourcePoint" />
          </mxGeometry>
        </mxCell>
        <mxCell id="aZnRzv1SFX0IplNiYT6L-3" style="edgeStyle=elbowEdgeStyle;rounded=0;orthogonalLoop=1;jettySize=auto;html=1;elbow=vertical;curved=0;" parent="aZnRzv1SFX0IplNiYT6L-1" target="aZnRzv1SFX0IplNiYT6L-1" edge="1">
          <mxGeometry relative="1" as="geometry">
            <mxPoint x="50" y="95" as="sourcePoint" />
          </mxGeometry>
        </mxCell>
        <mxCell id="aZnRzv1SFX0IplNiYT6L-70" value="" style="html=1;points=[];perimeter=orthogonalPerimeter;outlineConnect=0;targetShapes=umlLifeline;portConstraint=eastwest;newEdgeStyle={&quot;edgeStyle&quot;:&quot;elbowEdgeStyle&quot;,&quot;elbow&quot;:&quot;vertical&quot;,&quot;curved&quot;:0,&quot;rounded&quot;:0};" parent="aZnRzv1SFX0IplNiYT6L-1" vertex="1">
          <mxGeometry x="45" y="170" width="10" height="40" as="geometry" />
        </mxCell>
        <mxCell id="aZnRzv1SFX0IplNiYT6L-9" value="User" style="shape=umlLifeline;perimeter=lifelinePerimeter;whiteSpace=wrap;html=1;container=0;dropTarget=0;collapsible=0;recursiveResize=0;outlineConnect=0;portConstraint=eastwest;newEdgeStyle={&quot;edgeStyle&quot;:&quot;elbowEdgeStyle&quot;,&quot;elbow&quot;:&quot;vertical&quot;,&quot;curved&quot;:0,&quot;rounded&quot;:0};" parent="1" vertex="1">
          <mxGeometry x="90" y="60" width="100" height="730" as="geometry" />
        </mxCell>
        <mxCell id="aZnRzv1SFX0IplNiYT6L-52" value="" style="edgeStyle=elbowEdgeStyle;rounded=0;orthogonalLoop=1;jettySize=auto;html=1;elbow=vertical;curved=0;dashed=1;" parent="1" edge="1">
          <mxGeometry relative="1" as="geometry">
            <mxPoint x="613.75" y="170" as="sourcePoint" />
            <mxPoint x="615" y="170" as="targetPoint" />
          </mxGeometry>
        </mxCell>
        <mxCell id="aZnRzv1SFX0IplNiYT6L-53" value="OUT" style="shape=umlFrame;whiteSpace=wrap;html=1;pointerEvents=0;" parent="1" vertex="1">
          <mxGeometry x="70" y="150" width="670" height="280" as="geometry" />
        </mxCell>
        <mxCell id="aZnRzv1SFX0IplNiYT6L-54" value="Charge Out USDT Request" style="html=1;verticalAlign=bottom;startArrow=oval;endArrow=block;startSize=8;edgeStyle=elbowEdgeStyle;elbow=vertical;curved=0;rounded=0;" parent="1" edge="1">
          <mxGeometry x="0.0406" y="10" relative="1" as="geometry">
            <mxPoint x="139.5" y="200" as="sourcePoint" />
            <mxPoint x="275" y="200" as="targetPoint" />
            <mxPoint as="offset" />
          </mxGeometry>
        </mxCell>
        <mxCell id="aZnRzv1SFX0IplNiYT6L-57" value="Create Task " style="edgeStyle=elbowEdgeStyle;rounded=0;orthogonalLoop=1;jettySize=auto;html=1;elbow=vertical;curved=0;" parent="1" source="aZnRzv1SFX0IplNiYT6L-55" target="aZnRzv1SFX0IplNiYT6L-56" edge="1">
          <mxGeometry x="-0.0323" y="20" relative="1" as="geometry">
            <Array as="points">
              <mxPoint x="360" y="200" />
            </Array>
            <mxPoint as="offset" />
          </mxGeometry>
        </mxCell>
        <mxCell id="aZnRzv1SFX0IplNiYT6L-68" style="edgeStyle=elbowEdgeStyle;rounded=0;orthogonalLoop=1;jettySize=auto;html=1;elbow=vertical;curved=0;" parent="1" edge="1">
          <mxGeometry relative="1" as="geometry">
            <mxPoint x="445.5" y="230" as="sourcePoint" />
            <mxPoint x="615" y="230" as="targetPoint" />
          </mxGeometry>
        </mxCell>
        <mxCell id="aZnRzv1SFX0IplNiYT6L-81" value="Tranfer USDT " style="edgeLabel;html=1;align=center;verticalAlign=middle;resizable=0;points=[];" parent="aZnRzv1SFX0IplNiYT6L-68" vertex="1" connectable="0">
          <mxGeometry x="-0.1445" y="3" relative="1" as="geometry">
            <mxPoint as="offset" />
          </mxGeometry>
        </mxCell>
        <mxCell id="aZnRzv1SFX0IplNiYT6L-71" style="edgeStyle=elbowEdgeStyle;rounded=0;orthogonalLoop=1;jettySize=auto;html=1;elbow=vertical;curved=0;" parent="1" edge="1">
          <mxGeometry relative="1" as="geometry">
            <mxPoint x="615" y="260" as="sourcePoint" />
            <mxPoint x="139.5" y="260" as="targetPoint" />
            <Array as="points">
              <mxPoint x="480" y="260" />
            </Array>
          </mxGeometry>
        </mxCell>
        <mxCell id="aZnRzv1SFX0IplNiYT6L-72" value="User Receve USDT" style="edgeLabel;html=1;align=center;verticalAlign=middle;resizable=0;points=[];" parent="aZnRzv1SFX0IplNiYT6L-71" vertex="1" connectable="0">
          <mxGeometry x="0.0263" y="1" relative="1" as="geometry">
            <mxPoint as="offset" />
          </mxGeometry>
        </mxCell>
        <mxCell id="aZnRzv1SFX0IplNiYT6L-74" style="edgeStyle=elbowEdgeStyle;rounded=0;orthogonalLoop=1;jettySize=auto;html=1;elbow=vertical;curved=0;" parent="1" edge="1">
          <mxGeometry relative="1" as="geometry">
            <mxPoint x="280" y="310" as="sourcePoint" />
            <mxPoint x="440" y="310" as="targetPoint" />
            <Array as="points">
              <mxPoint x="335.5" y="310" />
            </Array>
          </mxGeometry>
        </mxCell>
        <mxCell id="aZnRzv1SFX0IplNiYT6L-75" value="Check Task " style="edgeLabel;html=1;align=center;verticalAlign=middle;resizable=0;points=[];" parent="aZnRzv1SFX0IplNiYT6L-74" vertex="1" connectable="0">
          <mxGeometry x="-0.0972" y="-1" relative="1" as="geometry">
            <mxPoint as="offset" />
          </mxGeometry>
        </mxCell>
        <mxCell id="aZnRzv1SFX0IplNiYT6L-78" value="return Result " style="html=1;verticalAlign=bottom;endArrow=open;dashed=1;endSize=8;curved=0;rounded=0;exitX=0;exitY=1;exitDx=0;exitDy=-5;" parent="1" source="aZnRzv1SFX0IplNiYT6L-76" edge="1">
          <mxGeometry relative="1" as="geometry">
            <mxPoint x="279.5" y="365" as="targetPoint" />
          </mxGeometry>
        </mxCell>
        <mxCell id="aZnRzv1SFX0IplNiYT6L-83" style="edgeStyle=elbowEdgeStyle;rounded=0;orthogonalLoop=1;jettySize=auto;html=1;elbow=vertical;curved=0;dashed=1;" parent="1" source="aZnRzv1SFX0IplNiYT6L-56" target="aZnRzv1SFX0IplNiYT6L-55" edge="1">
          <mxGeometry relative="1" as="geometry">
            <Array as="points">
              <mxPoint x="360" y="220" />
            </Array>
          </mxGeometry>
        </mxCell>
        <mxCell id="aZnRzv1SFX0IplNiYT6L-84" value="status" style="edgeLabel;html=1;align=center;verticalAlign=middle;resizable=0;points=[];" parent="aZnRzv1SFX0IplNiYT6L-83" vertex="1" connectable="0">
          <mxGeometry x="-0.1613" y="3" relative="1" as="geometry">
            <mxPoint as="offset" />
          </mxGeometry>
        </mxCell>
      </root>
    </mxGraphModel>
  </diagram>
</mxfile>
